{"glyphs":{"0":{"ha":728,"x_min":-39,"x_max":794,"o":"m -5 262 q 29 594 -39 414 q 151 793 72 707 q 454 935 298 948 q 638 853 564 928 q 747 663 713 778 q 764 361 794 513 q 631 98 743 202 q 347 -4 512 -4 q 113 66 204 -4 q -5 262 22 136 m 200 557 q 194 535 200 557 q 186 463 189 513 q 200 350 183 413 q 254 258 217 287 q 342 222 291 229 q 451 237 394 215 q 547 314 508 260 q 603 468 586 369 q 592 636 614 549 q 509 759 571 715 q 377 771 430 787 q 287 716 325 755 q 231 639 249 678 q 200 557 212 600 z "},"1":{"ha":509,"x_min":-26,"x_max":616,"o":"m 29 26 q 17 31 29 26 q -10 83 5 37 q -26 173 -26 130 q -14 263 -26 216 q 23 345 -2 311 q 79 416 47 378 q 142 494 110 453 q 251 644 175 536 q 292 718 283 692 q 142 666 236 686 q 80 659 100 659 q 41 674 60 659 q 18 695 22 690 q 6 722 14 701 q 5 796 -1 742 q 231 868 143 814 l 319 908 q 408 955 368 932 q 493 920 481 941 q 510 891 506 900 q 517 855 513 882 q 500 773 520 828 q 453 653 480 718 q 370 484 426 589 q 243 279 300 371 q 421 378 351 352 q 550 397 492 404 q 610 346 604 389 q 585 245 616 303 q 410 157 500 215 q 229 50 316 96 q 132 1 157 1 q 79 8 106 1 q 29 26 53 15 z "},"2":{"ha":792,"x_min":-69,"x_max":930,"o":"m 707 31 l 635 7 q 383 -18 549 -11 q 42 63 151 -11 q -2 92 -3 92 q -21 104 0 92 q -69 208 -69 144 q -50 300 -69 264 q 2 352 -30 337 q 62 362 34 366 q 134 352 91 358 q 263 392 177 345 q 435 510 349 439 q 564 673 521 581 q 538 749 573 727 q 436 786 494 789 q 340 767 378 784 q 271 719 302 750 q 195 636 240 688 q 131 594 165 598 q 52 623 97 589 q 14 690 14 656 q 38 756 14 724 q 96 815 61 789 q 168 868 130 842 q 316 933 205 894 q 556 947 423 968 q 697 865 651 925 q 750 739 750 817 q 690 541 755 624 q 493 329 622 425 q 290 213 370 225 q 400 176 363 179 q 519 186 438 172 q 676 239 605 200 q 771 333 754 298 q 838 375 788 368 q 930 288 930 373 q 854 150 910 217 q 707 31 799 83 z "},"3":{"ha":680,"x_min":-50,"x_max":736,"o":"m 538 505 q 684 425 632 488 q 731 282 736 362 q 625 76 734 169 l 581 42 q 370 -42 489 -12 q 117 -73 250 -73 q -24 -9 20 -73 q -50 65 -50 28 q -45 125 -50 102 q 18 123 -19 123 q 117 130 56 123 q 250 153 178 136 q 378 197 321 171 q 491 303 475 239 q 434 371 477 357 q 313 369 391 386 q 55 304 146 304 q 5 371 26 304 q -10 452 -10 418 q 204 499 129 471 q 401 604 275 536 q 477 707 472 677 q 454 763 482 737 q 394 772 420 781 q 332 747 367 764 q 267 716 287 730 q 243 691 247 702 q 228 666 240 680 q 184 653 216 653 q 137 660 152 653 q 105 684 121 666 q 90 740 90 717 q 119 797 90 764 q 192 862 148 830 q 281 913 236 894 q 411 943 326 932 q 596 896 526 953 q 666 758 666 840 q 593 558 680 650 q 538 505 572 526 z "},"4":{"ha":790,"x_min":-44,"x_max":894,"o":"m 854 233 q 646 248 807 248 l 617 248 q 595 248 603 248 q 517 -22 564 149 q 457 -25 484 -25 q 402 -23 430 -25 q 347 -9 374 -22 q 282 93 275 17 q 351 248 309 183 q 113 222 203 231 q 81 216 94 216 q 53 218 68 216 q 15 237 37 221 q -30 320 -8 254 q 9 497 -44 401 q 335 782 132 655 l 538 908 q 704 966 635 971 q 802 904 777 945 q 809 875 809 892 q 795 821 809 858 q 763 728 781 783 q 723 613 745 672 q 657 434 701 555 q 894 342 887 437 q 854 233 887 275 m 189 424 q 283 430 221 425 q 430 433 345 435 q 599 753 518 610 q 433 655 547 741 l 339 582 l 270 527 q 189 424 214 478 z "},"5":{"ha":600,"x_min":-123,"x_max":646,"o":"m 355 775 l 334 674 q 629 435 552 619 q 646 318 646 380 q 617 191 646 256 q 518 74 589 126 q 197 -9 408 -23 q -82 139 -8 18 q -110 188 -96 157 q -123 266 -123 218 q -94 351 -123 314 q 3 389 -62 398 q 152 266 71 293 q 334 257 265 225 q 416 393 412 304 q 290 514 403 460 q 199 541 251 525 q 136 566 147 556 q 165 720 143 631 q 195 837 187 808 q 223 911 213 901 q 265 925 233 922 q 330 929 297 928 q 423 932 384 932 l 503 932 q 603 937 583 932 q 604 923 604 930 q 602 902 604 916 q 610 800 601 888 q 567 759 594 759 q 459 765 506 759 q 392 772 413 771 q 355 775 372 774 z "},"6":{"ha":656,"x_min":-19,"x_max":720,"o":"m 269 591 q 424 618 336 622 q 570 576 511 615 q 668 476 629 538 q 713 343 707 415 q 694 195 720 271 q 594 65 667 120 q 252 -8 463 -35 q 12 149 78 5 q -19 291 -19 233 q -11 398 -19 348 q 18 498 -3 448 q 69 604 38 548 q 140 709 100 659 q 225 798 179 759 q 355 888 271 838 q 543 941 449 935 q 671 941 618 948 q 705 903 698 921 q 682 825 705 881 q 656 760 659 768 q 548 766 595 772 q 456 742 501 759 q 372 701 410 725 q 269 591 284 629 m 217 403 q 193 340 193 366 q 199 292 193 314 q 224 251 205 271 q 380 208 265 208 q 498 259 459 215 q 528 349 528 302 q 397 444 528 424 q 217 403 256 451 z "},"7":{"ha":577,"x_min":-86,"x_max":637,"o":"m 38 705 q -22 835 -22 743 q 45 915 -22 891 q 220 943 112 936 q 556 915 423 943 q 603 894 581 902 q 630 824 637 867 q 609 758 623 781 q 398 556 511 697 q 235 334 281 421 q 389 386 323 372 q 506 401 454 401 q 594 373 558 402 q 593 261 617 297 q 381 192 451 221 q 193 77 312 162 q 163 7 159 33 q 85 -1 112 -1 q 40 -1 58 -1 q -14 12 22 -1 q -86 153 -86 39 q 39 420 -79 277 q 237 637 126 529 q 384 777 314 724 q 256 766 340 783 q 38 705 106 732 z "},"8":{"ha":785,"x_min":-85,"x_max":909,"o":"m 565 517 q 630 418 607 469 q 644 330 652 368 q 773 387 702 368 q 877 369 844 406 q 863 233 909 332 q 771 197 804 210 q 703 163 739 185 q 628 118 667 140 q 505 57 589 95 q 199 0 404 0 q 25 61 104 0 q -71 230 -64 125 q -44 386 -85 317 q 90 510 -4 454 q 214 569 161 549 q 155 634 176 605 q 111 736 108 690 q 135 820 115 783 q 216 902 155 857 q 460 961 311 961 q 646 913 570 961 q 740 754 740 834 q 673 587 753 648 q 565 517 621 545 m 393 613 q 535 676 507 652 q 575 712 564 700 q 587 738 586 724 q 578 770 589 751 q 545 800 567 789 q 455 824 500 824 q 382 820 410 824 q 319 796 353 817 q 292 696 254 752 q 393 613 329 658 m 228 397 q 207 386 228 397 q 166 351 187 375 q 142 296 146 326 q 150 242 139 265 q 184 207 161 219 q 283 188 236 181 q 364 208 330 195 q 421 240 398 220 q 446 332 455 294 q 410 394 437 369 q 361 444 382 419 q 228 397 268 419 z "},"9":{"ha":656,"x_min":-83,"x_max":770,"o":"m 294 337 q 139 275 186 275 q 50 282 91 275 q -23 320 8 289 q -63 486 -83 387 q 62 801 -56 642 q 250 937 150 905 q 375 954 317 961 q 479 927 433 947 q 564 842 526 907 q 604 647 611 781 q 555 486 596 572 q 444 304 514 399 q 632 398 565 374 q 742 392 699 422 q 750 294 770 340 q 672 233 730 248 q 570 188 611 208 q 485 142 530 168 q 332 17 441 116 q 194 -90 269 -50 q 41 -100 119 -130 q -47 35 -33 -60 q -39 75 -54 71 q -22 79 -25 79 q 180 171 85 79 q 294 337 269 257 m 191 477 q 329 540 288 504 q 401 621 370 576 q 433 690 433 665 q 425 734 433 715 q 401 773 417 754 q 323 794 368 801 q 210 735 260 792 q 132 562 147 663 q 191 477 118 478 z "},"#":{"ha":690,"x_min":-75,"x_max":867,"o":"m 191 252 q 50 -3 83 -3 q -75 23 -7 -3 q 51 258 -41 74 q -46 285 -39 266 q -44 390 -59 321 q 109 376 -2 382 q 191 552 151 464 q 54 582 62 559 q 56 676 43 614 q 241 661 98 667 q 359 961 346 901 l 376 956 q 420 930 420 941 q 347 658 420 873 q 578 655 460 655 q 688 961 674 898 l 705 956 q 749 930 749 941 q 686 657 749 869 q 867 667 817 660 l 867 650 q 856 594 867 597 q 656 564 813 577 q 593 370 627 467 q 790 381 733 373 l 790 361 q 778 296 790 300 q 744 288 766 292 q 693 279 722 283 q 555 264 628 270 q 423 -3 456 -3 q 298 23 359 -3 q 409 256 321 59 q 265 252 319 252 q 191 252 211 252 m 538 555 q 308 549 433 549 q 240 372 272 452 q 459 369 346 369 l 538 555 z "},"$":{"ha":753,"x_min":-1,"x_max":884,"o":"m 679 1101 q 755 1068 749 1080 l 755 1065 q 718 930 755 1040 l 720 930 q 884 844 884 901 q 808 770 884 802 q 709 836 764 819 q 681 844 706 840 q 580 591 580 599 l 582 591 q 755 338 755 462 q 564 51 755 166 q 362 -9 446 -9 q 282 -7 293 -7 q 184 -181 199 -181 q 175 -183 180 -183 q 95 -123 143 -183 q 163 8 109 -106 q 173 24 165 8 l 173 26 q 21 197 77 67 q -1 340 -1 277 q 44 372 -1 358 q 116 254 66 304 q 247 184 198 190 l 432 530 l 432 532 q 330 702 330 624 q 541 930 330 881 q 598 935 565 935 l 615 935 q 676 1101 654 1030 l 679 1101 m 420 735 q 479 659 420 687 l 568 857 l 555 857 q 436 801 482 857 q 420 735 420 772 m 506 446 q 376 201 471 364 q 366 178 366 182 l 372 178 q 545 264 509 186 q 566 334 566 303 q 508 446 566 386 l 506 446 z "},"%":{"ha":591,"x_min":-170,"x_max":742,"o":"m -170 33 q 112 290 -93 87 q 605 827 414 589 q 690 941 655 890 q 725 917 709 935 q 742 895 742 899 q 583 648 742 853 q 251 256 442 465 q -37 -22 60 48 q -81 -46 -70 -46 q -106 -37 -93 -46 q -132 -15 -119 -27 q -170 33 -163 15 m 394 578 q 377 562 394 578 q 314 528 359 546 q 228 511 269 511 q 162 521 187 511 q 119 550 136 532 q 81 636 81 587 q 97 723 81 685 q 139 793 113 761 q 279 879 197 860 q 298 895 286 892 q 328 897 311 897 q 370 890 345 897 q 419 862 395 882 q 471 760 471 819 q 450 655 471 701 q 394 578 429 610 m 254 640 q 325 679 290 640 q 363 751 359 718 q 329 829 369 809 q 242 775 274 812 q 211 688 211 737 q 254 640 211 640 m 418 402 q 439 428 425 425 q 479 430 457 430 q 532 421 501 430 q 591 389 564 413 q 647 243 647 338 q 564 54 647 134 q 361 -26 480 -26 q 236 15 281 -26 q 192 134 192 56 q 258 293 192 212 q 418 402 323 375 m 350 191 q 397 135 350 135 q 468 173 433 135 q 510 271 510 220 q 485 330 510 308 q 361 244 396 317 q 350 191 350 220 z "},"&":{"ha":932,"x_min":-7,"x_max":1092,"o":"m 585 1107 l 671 1114 q 825 1012 773 1100 q 843 935 843 956 q 771 715 850 821 q 592 576 698 628 l 604 532 q 637 440 618 481 q 753 517 703 496 q 793 431 812 492 q 709 292 787 372 q 817 239 737 201 q 945 359 876 281 q 1065 338 1010 396 q 971 106 1092 241 q 839 16 915 45 q 674 0 762 -14 q 534 118 579 14 q 271 2 401 -9 q 80 56 140 -1 q 6 172 20 113 q -7 258 -7 230 q 182 580 -4 450 q 375 676 254 635 q 384 931 359 803 q 585 1107 432 1086 m 556 728 q 715 941 743 825 q 673 978 702 964 q 616 986 644 993 q 554 939 569 972 q 540 816 538 905 l 556 728 m 195 341 q 190 329 195 341 q 195 269 186 317 q 307 216 229 193 l 331 216 q 437 294 437 277 l 437 296 q 401 513 410 346 l 397 513 q 240 411 309 481 q 195 341 203 366 z "},"'":{"ha":450,"x_min":271,"x_max":499,"o":"m 378 710 q 368 700 378 710 q 340 678 357 690 q 317 666 323 666 q 305 668 311 666 q 293 673 299 670 q 271 688 277 682 q 293 777 281 712 q 315 876 306 842 q 339 937 324 910 q 425 998 372 998 q 479 976 459 998 q 499 924 499 954 q 488 867 499 895 q 459 811 477 839 q 420 756 441 783 q 378 710 399 730 z "},"(":{"ha":195,"x_min":-77,"x_max":827,"o":"m -49 -121 q -55 -112 -49 -121 q -69 -75 -61 -102 q -77 11 -77 -47 q -53 158 -77 68 q 12 338 -29 247 q 109 519 53 429 q 231 691 165 610 q 367 843 296 773 q 509 964 438 913 q 779 1074 663 1074 q 823 1028 811 1074 q 827 1005 826 1016 q 555 882 700 1005 q 310 585 422 769 q 149 218 199 404 q 119 24 119 104 q 134 -111 119 -56 q 42 -153 100 -140 q 8 -158 24 -158 q -22 -149 -7 -158 q -49 -121 -37 -139 z "},")":{"ha":290,"x_min":-245,"x_max":451,"o":"m 331 1059 q 372 1071 355 1071 q 410 1055 402 1071 q 446 924 440 987 q 451 814 451 861 q 443 687 451 767 q 406 501 434 608 q 337 294 378 395 q 243 104 296 193 q 130 -53 191 14 q -132 -199 -2 -199 q -212 -149 -174 -199 q -245 -79 -243 -108 q 17 87 -115 -50 q 228 397 137 212 q 359 892 359 664 q 331 1059 359 989 z "},"*":{"ha":337,"x_min":-85,"x_max":478,"o":"m 279 694 q 386 602 345 635 q 358 572 376 582 q 311 564 326 555 q 212 625 272 585 q 139 474 163 503 q 93 454 122 454 q 66 462 77 454 q 118 616 90 522 q -35 556 -18 556 q -61 563 -53 556 q -75 578 -70 569 q -85 612 -85 596 q 100 710 -2 654 q -1 842 -1 795 q 37 899 -1 869 q 59 914 47 908 q 167 798 71 888 q 197 962 197 925 q 215 962 203 962 q 243 960 227 962 q 269 949 258 958 q 288 909 288 935 q 271 805 288 873 q 443 914 404 881 q 478 858 478 880 q 382 753 478 813 q 279 694 336 724 z "},"+":{"ha":406,"x_min":-103,"x_max":500,"o":"m 283 429 q 498 446 420 433 q 500 420 500 434 q 467 361 500 375 q 244 324 405 338 q 142 95 176 151 q 75 68 125 68 q 48 73 55 68 q 63 122 54 94 q 82 180 72 149 q 102 246 92 212 q 124 316 113 280 q 21 314 70 314 q -103 393 -103 314 q -94 447 -103 416 q 157 428 -32 428 q 212 688 217 636 q 231 688 218 688 q 264 685 245 688 q 299 675 284 683 q 330 611 330 659 q 283 429 330 564 z "},",":{"ha":562,"x_min":-16,"x_max":439,"o":"m 182 -10 q 163 42 163 11 q 176 97 163 73 q 210 137 189 120 q 318 174 258 174 q 409 146 378 174 q 439 78 439 119 q 420 0 439 37 q 369 -74 401 -38 q 295 -140 336 -109 q 210 -195 254 -172 q 46 -245 115 -245 q -7 -195 21 -245 q -16 -174 -14 -183 q 151 -50 85 -113 q 182 -10 174 -27 z "},"-":{"ha":360,"x_min":-62,"x_max":406,"o":"m -44 446 q 151 428 64 428 q 348 435 301 428 q 400 438 395 443 q 406 419 406 433 q 388 387 406 405 q 342 353 371 369 q 276 325 313 338 q 200 304 239 313 q 61 286 119 286 q -57 346 -35 286 q -62 375 -62 361 q -44 446 -62 415 z "},".":{"ha":562,"x_min":122,"x_max":439,"o":"m 162 -42 q 151 -34 162 -42 q 131 -10 140 -26 q 122 30 122 6 q 138 80 122 54 q 182 127 155 106 q 311 174 243 174 q 409 146 378 174 q 439 74 439 119 q 362 -20 439 23 q 228 -59 291 -59 q 162 -42 185 -59 z "},"/":{"ha":781,"x_min":0,"x_max":806,"o":"m 726 996 q 806 966 793 977 q 471 386 806 917 q 184 -24 334 170 q 130 -68 144 -68 q 12 -26 84 -68 q 0 -14 0 -16 l 0 -12 q 228 268 120 116 q 659 886 405 507 l 726 996 z "},":":{"ha":562,"x_min":122,"x_max":551,"o":"m 334 325 q 322 334 334 325 q 301 360 311 343 q 292 398 292 376 q 309 444 292 420 q 350 487 326 467 q 444 530 404 530 q 500 510 472 530 q 551 437 551 471 q 500 350 551 395 q 400 306 448 306 q 334 325 357 306 m 162 -42 q 151 -34 162 -42 q 131 -10 140 -26 q 122 30 122 6 q 138 80 122 54 q 182 127 155 106 q 311 174 243 174 q 409 146 378 174 q 439 74 439 119 q 362 -20 439 23 q 228 -59 291 -59 q 162 -42 185 -59 z "},";":{"ha":562,"x_min":-16,"x_max":551,"o":"m 334 325 q 322 334 334 325 q 301 360 311 343 q 292 398 292 376 q 309 444 292 420 q 350 487 326 467 q 444 530 404 530 q 500 510 472 530 q 551 437 551 471 q 500 350 551 395 q 400 306 448 306 q 334 325 357 306 m 182 -10 q 163 42 163 11 q 176 97 163 73 q 210 137 189 120 q 318 174 258 174 q 409 146 378 174 q 439 78 439 119 q 420 0 439 37 q 369 -74 401 -38 q 295 -140 336 -109 q 210 -195 254 -172 q 46 -245 115 -245 q -7 -195 21 -245 q -16 -174 -14 -183 q 151 -50 85 -113 q 182 -10 174 -27 z "},"<":{"ha":256,"x_min":-82,"x_max":545,"o":"m -2 226 q -19 245 -2 226 q -60 300 -37 264 q -82 356 -82 335 q -60 403 -82 377 q -1 460 -38 429 q 83 524 35 490 q 181 591 130 558 q 282 653 231 623 q 375 704 332 682 q 491 753 468 753 q 536 713 511 753 q 545 699 543 705 q 386 598 496 676 q 240 494 275 521 q 177 445 204 467 q 117 384 116 395 q 131 355 118 372 q 165 319 144 339 q 268 232 204 281 q 415 126 332 183 q 384 74 412 105 q 310 15 332 15 q 249 34 288 15 q 166 82 210 52 q 78 150 122 113 q -2 226 34 188 z "},"=":{"ha":455,"x_min":-81,"x_max":535,"o":"m -29 568 q 234 551 62 551 q 530 568 418 551 q 535 546 535 557 q 481 456 535 456 q 304 427 446 437 q 77 416 224 418 q -37 497 -37 416 q -29 568 -37 526 m -67 326 q 163 310 7 310 l 210 310 q 486 326 385 310 q 492 310 492 317 l 492 296 q 448 223 486 223 q 39 180 321 180 q -81 261 -81 180 q -67 326 -77 326 z "},">":{"ha":302,"x_min":-271,"x_max":372,"o":"m 191 431 q -56 718 191 477 q -25 745 -42 737 q 1 753 -8 753 q 31 741 9 753 q 80 710 52 730 q 141 664 109 690 q 206 608 174 637 q 269 548 239 578 q 321 488 298 517 q 372 391 372 425 q 135 168 372 328 q -111 27 -9 71 q -155 15 -140 15 q -189 28 -170 15 q -224 60 -208 41 q -271 136 -258 99 q 57 325 -165 184 q 191 431 191 410 z "},"?":{"ha":766,"x_min":122,"x_max":936,"o":"m 454 772 q 462 746 462 757 q 450 724 462 736 q 419 701 438 713 q 328 673 374 673 q 228 765 228 673 q 313 916 228 838 q 513 1036 391 987 q 741 1085 636 1085 q 921 997 876 1085 q 936 928 936 967 q 917 852 936 890 q 866 778 897 815 q 794 705 834 741 q 711 635 753 669 q 629 570 669 602 q 557 511 589 539 q 487 418 487 450 q 524 359 487 376 q 610 380 563 342 q 624 368 619 378 q 616 341 629 357 q 576 308 603 326 q 518 279 549 291 q 408 256 458 256 q 328 265 359 256 q 274 291 297 274 q 224 379 224 328 q 250 472 224 431 q 320 549 277 513 q 418 616 363 585 q 530 676 473 647 q 643 735 588 706 q 741 795 698 764 q 837 935 837 864 q 809 998 837 975 q 740 1020 782 1020 q 655 1012 699 1020 q 568 989 611 1004 q 485 955 525 975 q 415 911 445 935 q 348 804 348 859 q 454 772 348 715 m 162 -42 q 151 -34 162 -42 q 131 -10 140 -26 q 122 30 122 6 q 138 80 122 54 q 182 127 155 106 q 311 174 243 174 q 409 146 378 174 q 439 74 439 119 q 361 -20 439 23 q 228 -59 289 -59 q 162 -42 185 -59 z "},"@":{"ha":889,"x_min":1,"x_max":1128,"o":"m 802 946 q 1098 804 1014 946 q 1128 677 1128 745 q 926 292 1128 443 q 717 230 825 230 q 605 288 631 230 q 599 319 601 295 q 408 230 513 230 q 263 327 306 230 q 258 371 258 349 l 258 375 q 508 689 258 562 q 719 734 618 734 q 773 710 773 729 l 774 710 q 825 745 800 745 l 833 745 q 874 734 874 743 q 795 454 795 547 q 833 408 795 408 q 1010 605 933 408 q 1019 671 1017 632 q 893 841 1019 795 q 785 857 835 857 q 458 766 683 857 q 288 652 374 725 q 138 364 138 498 q 296 151 138 200 q 524 128 397 128 q 659 144 572 128 q 673 91 673 125 q 592 23 673 56 q 431 -10 523 -10 q 121 68 210 -10 q 1 330 1 161 q 355 820 1 591 q 802 946 576 946 m 412 437 l 412 433 q 467 375 412 375 q 737 652 564 375 l 736 652 q 477 565 591 652 q 412 437 412 506 z "},"A":{"ha":1104,"x_min":-64,"x_max":1258,"o":"m 930 1082 l 962 1082 q 1053 1002 1053 1059 l 1053 999 q 993 619 1066 935 q 933 334 940 446 q 969 270 931 267 q 1093 371 1008 273 q 1208 373 1158 400 q 1225 233 1258 346 q 1116 81 1184 130 q 956 6 1015 14 q 815 3 898 -1 q 650 118 718 18 q 611 267 611 203 q 669 472 611 368 q 397 538 516 501 q 241 162 241 326 l 241 137 q 245 83 241 119 q 80 0 193 -5 q -13 35 23 -1 q -57 110 -49 71 q -58 212 -64 149 q 33 413 -39 313 q 189 583 104 513 q 63 653 123 591 q 146 830 46 749 q 237 810 192 838 q 342 754 280 785 q 840 1074 618 1000 q 930 1082 894 1082 m 520 685 l 520 678 q 745 612 597 656 l 802 725 q 863 872 853 842 q 844 912 863 912 l 823 912 q 673 834 736 886 q 520 685 610 782 z "},"B":{"ha":905,"x_min":-82,"x_max":964,"o":"m 406 1077 q 653 1046 578 1073 q 780 991 729 1019 q 871 912 830 964 q 911 819 899 882 q 902 687 925 768 q 810 568 878 608 q 921 457 894 507 q 956 380 948 406 q 964 287 964 354 q 936 168 958 216 q 855 68 913 120 q 660 -18 796 17 q 479 -36 565 -36 q 252 -15 328 -36 q 110 38 176 5 q -37 162 44 71 q -72 290 -82 241 q -25 363 -62 340 q 64 365 12 387 q 120 306 96 333 l 323 779 l 370 899 q 311 883 335 890 q 245 875 287 877 q 165 952 166 895 q 237 1050 161 1022 q 406 1077 286 1077 m 519 801 l 476 691 q 667 658 578 653 q 745 798 760 701 q 558 901 713 884 l 519 801 m 427 515 q 314 228 388 405 l 410 199 q 637 208 566 178 q 734 311 709 238 q 668 436 741 385 q 427 515 594 487 z "},"C":{"ha":895,"x_min":-9,"x_max":1064,"o":"m 644 1075 l 701 1075 q 848 1009 798 1057 q 897 895 898 961 q 818 793 895 814 l 782 787 q 689 836 703 791 q 595 863 682 876 l 591 863 q 428 799 513 853 q 288 633 342 745 q 251 496 251 555 l 251 445 q 365 293 251 354 q 570 264 475 250 q 892 427 780 311 q 981 470 943 473 q 1041 433 1019 466 q 1055 358 1064 401 q 981 224 1040 290 q 842 109 922 158 q 644 22 733 47 q 395 0 554 -3 q 236 28 295 11 q 123 84 177 46 q 23 217 69 123 q -9 352 -9 295 l -9 395 q 64 671 -7 532 q 262 916 136 811 q 461 1036 372 1000 q 644 1075 550 1072 z "},"D":{"ha":1040,"x_min":-72,"x_max":1114,"o":"m 548 1088 q 881 985 743 1082 q 1038 805 987 911 q 1086 651 1073 733 q 1069 354 1114 493 q 926 136 1025 215 q 676 21 789 42 q 420 2 564 0 l 395 2 q 1 167 141 2 q -67 341 -72 250 q -21 448 -62 420 q 78 439 21 475 q 150 354 93 401 l 220 491 l 291 628 l 361 764 l 432 901 q 373 884 414 899 q 311 852 332 869 q 195 802 263 802 l 167 802 q 107 901 107 829 q 206 1034 107 979 q 548 1088 373 1095 m 610 889 l 542 736 l 474 584 l 406 431 l 337 278 q 439 266 375 268 q 636 287 578 273 q 766 342 694 302 q 896 494 869 401 q 905 668 922 587 q 877 740 898 695 q 793 831 857 785 q 610 889 730 877 z "},"E":{"ha":806,"x_min":-37,"x_max":903,"o":"m 590 1079 l 654 1076 q 792 1014 732 1063 q 856 916 851 965 q 846 839 869 867 q 778 810 823 810 l 718 833 q 695 900 736 870 q 544 928 648 947 q 433 829 447 901 l 433 810 q 589 690 460 727 q 698 653 652 669 l 677 530 l 631 534 l 573 534 q 288 464 314 534 q 240 361 240 430 l 240 355 q 378 230 240 284 q 582 239 488 210 q 755 354 675 269 q 807 392 787 378 l 821 392 q 903 327 884 392 q 863 207 899 267 q 758 102 827 146 q 578 19 671 45 q 328 0 486 -7 q 229 16 295 0 q 91 85 163 32 q -9 216 18 139 q -31 316 -31 293 q 157 610 -37 507 q 318 654 257 654 q 231 808 245 716 q 408 1053 231 972 q 590 1079 471 1074 z "},"F":{"ha":833,"x_min":-48,"x_max":930,"o":"m 481 1055 q 779 835 715 973 q 800 728 803 792 q 745 473 789 585 q 913 415 798 441 l 916 397 q 911 292 930 319 q 850 259 892 266 q 648 290 736 245 q 452 92 589 195 q 147 0 301 -14 q -5 69 42 0 q -43 191 -43 117 q 9 378 -48 307 q 102 422 47 436 q 158 323 158 395 q 210 264 158 277 q 347 283 288 250 q 448 358 407 316 l 461 375 q 322 449 395 391 q 297 583 254 519 q 387 644 333 640 q 526 559 460 600 l 561 545 q 620 713 614 637 q 498 851 620 805 q 430 871 482 858 q 256 838 250 899 q 173 793 222 800 q 79 817 105 786 q 55 897 52 848 q 313 1078 75 1078 q 481 1055 392 1075 z "},"G":{"ha":1023,"x_min":-33,"x_max":1147,"o":"m 790 1075 q 1014 962 958 1072 q 997 836 1043 882 q 879 818 950 790 q 787 895 860 883 q 644 896 715 912 q 463 814 573 880 q 240 477 260 662 q 353 251 233 300 q 456 227 401 231 q 629 252 583 222 q 731 323 704 277 l 670 352 q 541 444 570 394 q 530 562 500 512 l 574 623 q 701 562 637 587 q 897 483 810 515 q 1104 412 983 450 q 1112 294 1147 357 q 920 260 1078 231 l 920 256 l 907 231 q 817 128 876 174 q 677 41 751 70 q 527 2 603 12 q 364 0 450 -9 q 128 60 240 -5 q -22 271 16 124 q -33 370 -33 304 q 159 789 -26 585 q 480 1020 310 955 q 790 1075 605 1081 z "},"H":{"ha":1087,"x_min":-45,"x_max":1199,"o":"m 962 1112 q 1031 1076 999 1105 q 947 815 975 929 q 876 519 912 701 q 860 373 860 403 l 860 337 q 885 269 863 272 q 914 265 907 265 q 945 277 921 265 q 1019 351 969 290 l 1065 384 q 1128 385 1102 397 q 1177 347 1154 373 q 1180 237 1199 301 q 1097 105 1161 173 q 961 5 1025 31 q 815 -5 897 -21 q 728 41 764 11 q 672 114 692 71 q 646 224 653 157 q 673 425 646 319 l 705 555 l 659 564 q 492 597 585 575 q 427 393 451 461 q 357 205 403 326 q 233 27 314 77 q 59 71 151 -23 q -28 290 -26 174 q 39 422 -45 380 q 140 371 125 433 q 175 338 151 311 q 297 603 226 406 q 376 858 347 741 q 415 1094 405 974 q 418 1098 418 1094 q 563 1061 501 1121 l 563 1040 q 531 755 563 932 q 753 713 655 729 l 790 829 q 886 1095 835 981 q 962 1112 924 1114 z "},"I":{"ha":857,"x_min":-59,"x_max":979,"o":"m 642 1072 q 834 976 784 1072 q 852 888 852 924 l 852 850 l 838 768 q 771 569 822 686 q 633 317 704 393 q 838 384 750 371 q 955 348 931 394 q 934 231 979 302 q 764 180 836 199 q 574 99 692 161 q 446 25 485 40 q 350 -11 406 11 q 192 -27 294 -32 q -19 143 34 -27 q -44 263 -45 191 q -21 406 -59 362 q 44 451 17 450 q 80 452 71 452 q 125 418 107 452 q 144 342 126 383 q 229 269 155 302 q 273 262 254 262 q 371 294 332 262 q 462 391 409 326 q 611 620 562 517 q 679 820 661 723 l 679 850 q 605 878 679 887 q 455 822 467 861 q 443 779 443 784 q 354 731 429 739 q 245 785 262 740 q 238 847 235 825 q 267 917 240 869 q 398 1017 294 965 q 642 1072 564 1076 z "},"J":{"ha":907,"x_min":-42,"x_max":1034,"o":"m 662 1075 q 852 1006 814 1075 q 901 865 904 961 q 887 718 897 772 q 851 579 876 663 l 821 484 l 863 469 q 1008 414 919 460 q 998 288 1034 361 q 921 204 963 214 l 850 236 q 788 261 807 254 q 739 281 770 268 l 656 113 l 619 54 l 581 -5 q 259 -228 456 -245 q 127 -191 182 -228 q 20 -69 72 -153 q -15 35 -14 3 q 18 313 -42 162 q 239 494 113 470 q 537 531 332 542 q 640 520 600 519 q 737 810 737 718 l 737 832 q 622 892 737 890 q 470 810 534 902 q 389 755 447 768 q 299 770 338 748 q 261 854 260 792 q 498 1048 288 979 q 662 1075 573 1075 m 169 155 l 169 148 q 189 40 157 84 q 279 2 221 -3 q 481 193 370 2 l 537 288 l 558 343 q 391 369 469 371 q 260 323 314 366 q 176 203 205 281 q 169 155 169 170 z "},"K":{"ha":951,"x_min":-107,"x_max":1065,"o":"m 349 1084 q 426 1044 426 1084 l 426 1036 q 396 904 426 1029 l 359 779 l 347 738 q 353 688 340 696 q 512 761 393 688 l 631 848 q 795 1055 734 933 l 819 1076 q 932 975 932 1039 q 935 971 935 975 q 887 856 932 920 q 755 713 842 791 l 663 644 l 603 609 q 524 578 576 592 l 524 575 q 585 435 548 541 l 616 329 q 681 248 657 262 q 743 237 704 235 q 864 297 827 259 q 918 361 901 334 q 939 387 935 387 q 1056 334 1022 422 q 1009 180 1065 277 q 859 39 953 83 q 604 4 737 -16 q 427 94 496 20 q 350 281 357 168 l 338 363 q 316 494 326 467 l 306 494 q 248 413 266 494 l 215 277 q 161 73 182 115 l 133 30 q 86 1 106 4 q -100 48 5 1 l -107 59 l -52 238 q 92 621 16 416 l 175 825 q 274 1065 229 979 q 349 1084 292 1084 z "},"L":{"ha":940,"x_min":-52,"x_max":1092,"o":"m 746 1092 l 793 1092 q 958 1020 895 1085 q 1024 871 1021 956 q 1004 780 1034 817 q 914 734 971 737 l 899 734 q 820 799 827 740 q 818 839 815 825 q 810 872 821 853 q 758 901 800 890 l 754 901 q 672 845 707 899 q 604 675 637 792 q 556 534 587 605 q 495 404 514 438 q 439 325 476 369 q 761 281 636 254 q 873 333 840 302 q 924 396 905 365 q 1048 379 994 421 q 1070 248 1092 331 q 998 118 1046 174 q 888 41 951 62 q 684 1 793 1 q 315 107 556 -5 q 231 138 300 111 l 227 138 q 91 115 195 138 l 33 115 q -25 152 -10 115 q -46 219 -41 189 q -45 322 -52 250 q 18 427 -37 395 q 75 445 37 438 q 153 423 115 442 q 345 611 245 449 q 474 882 404 737 q 746 1092 589 1097 z "},"M":{"ha":1404,"x_min":-50,"x_max":1541,"o":"m 359 1081 q 616 1036 519 1095 q 766 853 713 990 q 817 662 803 736 q 826 551 823 609 q 1036 765 944 661 q 1206 962 1127 868 q 1335 1051 1275 1051 q 1415 969 1415 1042 q 1363 387 1356 465 q 1491 388 1441 422 q 1508 245 1541 353 q 1428 129 1462 164 q 1324 40 1394 94 q 1202 -1 1269 4 l 1162 -1 q 1074 65 1111 -1 q 1066 151 1051 103 q 1167 671 1109 401 q 909 350 1145 654 q 834 144 863 301 q 804 13 824 61 q 690 -5 755 -14 q 565 81 578 -5 q 618 268 566 113 q 657 503 653 371 l 644 635 q 574 823 624 753 l 570 823 q 361 219 506 483 q 167 37 278 43 q 17 111 97 23 q -50 289 -45 187 q 33 397 -45 384 q 136 344 75 415 l 140 344 q 214 420 191 378 q 403 885 338 601 q 354 869 376 878 q 313 831 332 860 q 190 791 271 774 q 96 871 110 812 l 96 886 q 223 1040 103 975 q 359 1081 323 1081 z "},"N":{"ha":1015,"x_min":-127,"x_max":1183,"o":"m 743 1084 l 761 1084 q 964 935 928 1070 q 968 865 968 907 q 887 530 975 759 q 843 321 850 404 l 850 290 q 927 279 877 260 q 1032 353 977 298 q 1130 377 1071 400 q 1183 317 1176 359 l 1183 286 q 1091 122 1158 193 q 918 14 1024 51 q 762 -2 838 -7 q 561 162 614 18 q 553 299 546 211 q 629 536 573 415 q 726 764 662 616 q 751 844 739 789 q 703 895 746 895 q 321 549 548 881 q 176 127 250 311 l 150 86 q 17 -2 99 5 q -33 1 -31 1 q -127 144 -112 1 l -127 147 q -52 343 -123 297 q 58 584 18 389 l 98 778 q 106 1006 122 928 q 96 1046 104 1038 q 167 1094 116 1094 q 316 1002 273 1103 q 328 854 330 895 q 589 1051 489 1029 q 743 1084 661 1084 z "},"O":{"ha":1064,"x_min":-45,"x_max":1212,"o":"m 648 1102 q 930 962 831 1111 q 989 839 962 916 q 1015 647 1009 758 q 965 418 1011 513 l 951 390 q 1059 415 1014 410 q 1158 398 1105 421 q 1142 229 1212 316 q 1000 164 1048 184 q 762 66 952 144 q 338 5 542 -21 q -24 243 71 5 q -39 349 -39 315 l -39 374 q 210 916 -45 663 q 648 1102 405 1102 m 236 498 q 289 349 236 400 q 384 288 342 297 q 479 279 425 279 q 737 452 646 293 q 804 669 801 561 q 802 751 808 709 q 771 831 795 793 q 691 897 746 870 q 602 915 652 910 q 490 887 557 917 q 350 777 423 857 q 236 498 243 659 z "},"P":{"ha":1073,"x_min":-70,"x_max":1168,"o":"m 627 1109 q 1064 898 907 1088 q 1150 665 1137 792 q 1134 452 1168 549 q 960 252 1093 307 q 633 227 807 197 l 623 227 q 438 288 492 261 l 387 151 q 320 -4 360 68 q 81 -20 214 -102 q -35 132 1 40 q -60 299 -70 224 q 20 394 -51 374 q 123 314 98 416 q 201 299 147 212 l 228 372 l 311 576 l 385 762 l 425 870 q 355 837 370 852 q 314 818 340 823 q 249 834 288 812 q 200 919 210 855 q 234 1010 199 976 q 317 1062 269 1044 q 458 1097 366 1080 q 627 1109 554 1116 m 635 899 q 555 661 603 810 l 506 512 q 692 436 601 450 q 899 493 813 402 q 945 705 965 567 l 924 753 q 741 882 875 853 q 635 899 675 902 z "},"Q":{"ha":1099,"x_min":-39,"x_max":1228,"o":"m 664 1096 q 844 1056 773 1101 q 948 945 916 1010 q 987 762 989 858 l 987 703 q 900 340 980 515 l 892 328 q 967 304 924 304 q 988 308 968 304 q 1052 363 1008 312 l 1085 391 q 1206 372 1160 429 q 1225 288 1228 332 q 1187 183 1222 243 q 1075 79 1152 123 q 903 50 996 41 q 718 122 803 57 q 550 5 636 44 q 333 -35 463 -33 l 287 -28 q 37 109 142 -28 q -39 330 -39 198 q 190 867 -39 591 q 664 1096 420 1109 m 212 437 q 327 235 198 273 q 403 229 363 224 q 581 302 484 235 q 526 425 526 352 q 627 511 547 511 q 671 491 660 505 q 711 447 683 477 q 774 587 749 494 q 791 692 787 634 q 787 791 794 726 q 671 904 778 884 l 640 904 q 331 735 486 911 q 212 437 212 589 z "},"R":{"ha":1128,"x_min":-46,"x_max":1225,"o":"m 543 1104 q 924 946 829 1084 q 989 791 966 886 q 811 384 1027 519 q 953 241 862 234 l 956 241 q 1082 351 1031 268 q 1176 389 1127 405 q 1225 300 1225 374 l 1225 293 q 1090 62 1218 165 q 909 1 1007 -6 q 699 117 772 1 q 587 352 639 206 l 572 352 q 438 383 490 352 l 410 397 q 317 80 376 260 q 175 3 263 -7 q 65 38 115 3 q -22 160 14 74 q -45 262 -39 191 q 26 401 -46 376 q 107 377 86 408 q 139 333 127 346 q 166 323 150 321 q 224 507 185 375 l 264 640 l 302 771 l 342 903 l 318 876 q 237 838 270 838 l 222 838 q 166 869 197 838 q 162 970 135 900 q 366 1090 203 1059 q 543 1104 481 1104 m 464 612 q 642 539 525 539 q 800 667 757 532 q 802 785 821 726 q 579 907 747 921 q 532 878 543 907 q 464 612 497 744 z "},"S":{"ha":752,"x_min":-128,"x_max":841,"o":"m 564 1107 q 738 966 728 1061 q 695 866 738 889 q 600 859 652 843 q 533 904 565 884 q 476 935 502 924 q 324 905 395 968 q 333 780 286 824 q 446 697 380 735 q 690 557 511 659 q 829 294 841 446 q 730 79 822 172 q 394 -37 607 -31 l 335 -37 q 136 3 227 -35 q -40 130 46 42 q -85 333 -128 239 q 7 395 -35 393 q 96 372 50 397 q 245 260 157 301 q 332 236 300 240 q 529 281 471 209 q 546 336 549 313 q 523 386 543 358 q 390 469 503 413 q 218 598 306 514 q 100 826 109 675 q 245 1080 91 977 q 564 1107 398 1147 z "},"T":{"ha":890,"x_min":-33,"x_max":1101,"o":"m 998 1096 q 1063 1036 1040 1096 q 1003 861 1101 924 q 877 836 921 830 q 728 861 833 842 l 675 867 q 635 528 654 640 q 578 372 615 415 q 787 428 705 424 q 900 418 869 433 q 960 374 931 403 q 972 288 979 330 q 911 212 965 245 q 733 193 817 205 q 598 152 648 181 q 436 68 548 123 l 383 43 q 189 -17 235 -17 q -7 88 59 -17 q -26 237 -33 163 q 68 361 -26 322 q 306 406 194 353 q 446 669 386 463 q 482 867 483 825 q 260 850 375 874 q 176 802 204 843 q 67 774 141 764 q -27 854 -4 789 l -32 895 q 123 1040 -24 1011 q 384 1067 246 1072 q 656 1071 522 1062 l 758 1070 q 995 1096 914 1079 l 998 1096 z "},"U":{"ha":1038,"x_min":-81,"x_max":1185,"o":"m 833 1127 q 924 1129 873 1139 q 975 1075 975 1120 q 846 558 975 971 q 802 353 800 414 q 876 295 817 295 q 980 340 935 296 q 1076 402 1031 406 q 1151 378 1122 398 q 1166 270 1185 329 q 1061 92 1139 169 q 877 -5 983 14 q 652 42 723 -26 q 606 108 612 81 q 583 159 583 141 q 258 -4 410 -4 l 217 -4 q 38 55 103 3 q -44 156 -26 106 q -61 222 -61 206 q 20 600 -81 358 q 109 890 89 813 q 82 981 57 913 q 239 1081 116 1054 q 320 958 323 1074 l 313 901 q 220 519 279 716 q 213 377 195 429 q 299 311 238 311 l 299 307 q 567 532 435 307 q 751 972 673 736 q 833 1127 775 1093 z "},"V":{"ha":871,"x_min":-39,"x_max":964,"o":"m 964 412 q 854 259 954 273 q 737 373 728 254 q 710 537 747 495 q 586 573 673 579 q 446 480 492 551 q 373 303 399 410 l 354 165 q 278 -40 356 -40 l 270 -40 q 65 21 131 -55 q 23 135 35 90 q -9 243 12 180 l -24 321 q -38 533 -37 436 q -15 762 -39 631 q 44 930 17 873 q 140 1064 71 987 q 269 1076 193 1097 q 326 975 330 1040 q 224 809 254 878 q 182 606 194 740 q 195 403 174 515 q 354 675 258 576 q 570 793 450 774 q 810 743 700 818 q 915 630 887 680 q 952 537 943 580 q 964 412 962 495 z "},"W":{"ha":1102,"x_min":-70,"x_max":1146,"o":"m 1027 1098 q 1096 1052 1086 1098 q 1124 932 1105 1006 l 1145 727 q 1114 374 1146 522 q 998 107 1088 225 q 772 -12 898 -16 l 714 -9 q 586 94 634 16 q 548 175 562 135 q 526 311 532 250 l 526 315 l 522 315 q 406 112 494 239 q 180 -5 309 9 l 113 2 q -48 141 -7 37 q -59 293 -70 231 q -27 408 -49 355 q 12 516 -5 462 q 60 703 29 571 q 86 868 85 836 q 83 929 86 900 q 86 996 80 959 q 127 1055 92 1032 q 252 1015 210 1084 q 281 917 283 976 l 282 855 q 251 617 283 740 l 226 519 q 201 378 208 454 l 201 359 q 264 313 218 313 q 444 557 351 355 q 526 884 511 742 l 547 1025 q 610 1076 570 1071 l 639 1076 q 716 1033 693 1074 q 706 694 711 812 q 713 429 701 577 q 780 295 728 336 l 811 295 q 941 731 910 363 q 931 1010 951 882 q 947 1081 923 1055 q 1027 1098 990 1100 z "},"X":{"ha":817,"x_min":-110,"x_max":1028,"o":"m 784 1081 q 871 1012 861 1088 l 871 990 q 835 817 870 904 q 750 652 800 729 q 602 460 701 574 l 595 456 q 697 312 607 377 q 785 314 731 294 q 865 380 825 345 q 969 389 924 416 q 1013 331 1015 361 q 943 136 1028 247 q 629 3 803 -14 q 469 83 552 3 q 389 231 408 159 l 385 231 q 242 96 308 140 q 116 29 177 52 q -20 -1 56 6 q -110 87 -77 13 l -110 166 q -48 366 -100 317 q 38 374 -7 368 q 153 404 84 379 q 311 523 222 429 q 277 701 308 628 q 186 840 245 774 q 52 923 116 923 l 52 926 q 113 1063 73 1030 l 134 1063 q 331 964 218 1061 q 511 688 444 867 q 621 833 571 736 q 701 1054 671 930 q 784 1081 724 1088 z "},"Y":{"ha":1109,"x_min":-132,"x_max":1225,"o":"m 944 856 q 1171 674 1097 834 q 1187 407 1225 556 q 1024 271 1143 262 q 977 483 866 328 q 938 640 1015 583 q 749 584 861 698 q 585 326 656 469 q 193 -35 418 -35 l 169 -35 q -86 120 -7 -19 q -117 277 -132 199 q -71 355 -110 332 q 52 364 -6 401 q 116 297 100 338 q 184 253 131 257 q 323 397 266 252 q 370 589 353 479 q 286 850 397 786 q 137 833 199 877 q 23 935 35 829 q 144 1060 22 1033 q 347 1032 243 1077 q 489 906 439 989 q 543 737 538 824 q 517 526 548 650 q 608 674 554 598 q 944 856 744 884 z "},"Z":{"ha":968,"x_min":-58,"x_max":1103,"o":"m 639 1046 q 946 845 946 1035 q 895 664 953 766 q 684 437 838 562 l 559 352 q 358 249 457 283 l 358 245 l 362 245 q 656 262 497 235 q 959 394 789 289 q 1089 308 1055 409 q 1029 178 1103 233 q 684 26 890 54 q 448 23 532 16 q 228 18 364 30 l 136 5 q -18 45 8 -16 q -58 222 -54 128 q -13 324 -53 292 q 168 394 28 355 q 650 662 446 482 q 741 801 736 747 l 738 823 q 646 857 716 854 l 610 857 q 425 825 520 859 q 323 777 363 800 q 238 745 279 745 l 220 745 q 134 796 161 751 q 113 892 106 842 q 408 1033 134 1001 q 639 1046 498 1046 z "},"[":{"ha":494,"x_min":-79,"x_max":741,"o":"m -79 -159 q 71 312 -79 -16 q 359 854 199 597 q 511 1059 455 1010 q 565 1072 525 1072 q 627 1070 606 1072 q 671 1066 648 1069 q 741 1045 741 1057 q 714 968 741 1025 q 563 975 634 979 q 294 388 484 900 q 150 -75 193 108 q 236 -90 185 -86 q 302 -93 287 -94 q 243 -227 268 -224 q 197 -230 227 -230 q 132 -228 168 -230 q 58 -219 96 -225 q -9 -205 21 -214 q -79 -159 -79 -186 z "},"\\":{"ha":689,"x_min":176,"x_max":492,"o":"m 176 1119 q 227 1130 207 1130 q 382 571 267 1130 q 487 -31 460 191 q 492 -99 492 -79 q 486 -130 492 -118 q 464 -150 479 -142 q 355 -168 433 -166 q 357 -123 357 -150 q 354 -43 357 -97 q 341 101 351 12 q 319 294 332 191 q 291 502 307 397 q 260 706 276 606 q 228 890 243 806 q 176 1119 193 1072 z "},"]":{"ha":413,"x_min":-238,"x_max":503,"o":"m -157 -244 q -172 -242 -157 -244 q -209 -236 -188 -241 q -234 -226 -231 -232 q -238 -176 -238 -220 q -221 -85 -238 -132 q -94 -84 -138 -91 q 147 376 -35 -9 q 390 974 347 799 q 237 983 354 981 q 257 1053 245 1037 q 282 1072 269 1069 q 315 1075 294 1074 q 361 1076 336 1076 q 412 1074 386 1076 q 503 1051 503 1068 q 484 948 503 1034 q 444 785 465 862 q 399 626 424 709 q 348 459 374 543 q 293 294 321 376 q 237 137 264 212 q 184 -2 210 62 q 136 -117 159 -67 q 69 -237 90 -221 q -4 -250 52 -250 q -93 -248 -61 -250 q -157 -244 -125 -247 z "},"^":{"ha":337,"x_min":-141,"x_max":437,"o":"m 69 291 q 37 271 69 291 q -27 236 5 251 q -70 220 -60 220 q -91 226 -81 220 q -111 239 -100 231 q -141 271 -135 258 q 0 381 -80 313 q 114 482 80 450 q 203 591 191 557 q 263 578 254 586 q 374 349 300 471 q 437 271 411 289 q 408 235 426 248 q 376 222 389 222 q 337 237 362 222 q 287 275 312 252 q 198 385 239 319 q 69 291 133 330 z "},"_":{"ha":867,"x_min":-26,"x_max":867,"o":"m 0 84 l 867 84 l 841 0 l -26 0 l 0 84 z "},"`":{"ha":814,"x_min":372,"x_max":621,"o":"m 597 716 q 589 711 597 716 q 569 706 581 706 q 536 715 558 706 q 491 741 514 725 q 447 778 469 757 q 408 821 425 798 q 372 910 372 871 q 411 964 372 935 q 473 991 448 991 q 568 810 499 912 q 621 747 601 761 q 597 716 613 727 z "},"a":{"ha":723,"x_min":-34,"x_max":844,"o":"m 625 625 q 691 590 669 632 l 633 449 l 604 368 l 588 307 q 583 275 583 287 l 583 264 q 623 246 586 233 l 628 246 q 694 316 673 278 q 728 353 726 353 q 802 356 766 366 q 841 326 838 345 q 837 280 844 307 q 815 223 829 253 q 760 127 802 193 q 690 51 721 76 q 620 9 659 25 q 525 0 581 -7 q 401 66 452 7 l 378 97 q 158 0 289 0 q -6 100 43 0 q -24 165 -24 136 q 39 383 -34 277 q 211 557 97 478 q 338 615 288 600 q 476 629 389 629 l 486 629 q 546 606 520 623 q 625 625 578 632 m 162 273 q 205 205 162 218 l 224 205 q 482 496 344 215 l 487 484 q 182 327 283 490 q 162 273 169 304 z "},"b":{"ha":730,"x_min":-32,"x_max":883,"o":"m 452 954 q 464 949 452 954 q 490 927 476 945 q 500 884 503 909 q 382 646 500 872 l 384 646 q 453 661 404 661 l 479 663 q 578 634 541 659 q 640 566 615 610 q 659 429 664 522 q 595 250 652 320 q 686 304 648 265 q 754 368 732 350 q 808 381 777 385 q 874 336 840 378 q 846 244 883 294 q 774 146 821 197 q 617 43 709 79 q 362 -6 513 -3 q 186 4 240 -4 q 61 61 133 12 q -20 228 -16 128 q 62 511 -32 371 l 192 695 l 321 878 q 405 958 372 944 q 452 954 429 962 m 191 276 q 255 205 199 212 q 457 329 374 205 q 492 435 492 378 l 492 440 q 415 505 472 505 q 258 429 326 505 q 191 278 191 353 l 191 276 z "},"c":{"ha":598,"x_min":-14,"x_max":711,"o":"m 402 662 l 416 662 q 534 629 486 669 q 557 563 557 605 q 511 503 551 528 q 415 509 456 509 q 233 424 307 509 q 194 330 194 363 l 194 315 q 283 189 187 226 q 405 190 355 172 q 501 245 454 208 q 574 327 548 283 l 586 342 q 651 370 613 371 q 707 330 689 368 l 707 329 q 698 248 711 293 q 654 160 684 202 q 588 84 625 118 q 486 17 551 50 q 302 -24 420 -16 q 133 14 184 -14 q 28 102 82 41 q -14 243 -14 165 q 14 391 -14 332 l 41 450 q 284 644 129 596 q 402 662 355 662 z "},"d":{"ha":798,"x_min":-51,"x_max":922,"o":"m 785 935 l 798 935 q 895 895 859 935 q 723 511 823 748 q 643 325 663 376 l 636 284 q 709 265 643 234 q 785 336 754 300 q 842 375 800 370 q 917 314 910 366 q 851 160 922 260 q 722 40 777 73 q 593 3 667 8 q 513 20 543 4 q 465 59 484 37 q 435 106 446 81 q 318 32 370 54 q 153 -2 240 -2 l 136 -2 q -23 101 31 5 q -41 186 -41 143 q 39 435 -51 309 q 208 578 116 533 q 494 656 363 656 l 569 656 l 582 656 l 636 743 q 720 897 680 828 q 785 935 755 935 m 177 256 q 241 213 186 206 q 485 421 360 224 q 532 505 520 478 l 533 505 q 312 446 425 504 q 177 256 178 366 z "},"e":{"ha":709,"x_min":-35,"x_max":885,"o":"m 386 712 l 390 712 q 572 601 507 705 q 589 525 594 561 q 530 363 587 429 q 398 256 469 294 q 227 205 326 218 q 325 167 264 176 q 473 167 409 154 q 698 321 597 194 q 752 380 736 376 q 831 368 789 398 q 867 285 885 342 q 775 163 823 214 q 636 58 733 113 q 297 -5 468 -20 l 275 -5 q 23 117 100 12 q -16 227 -11 164 q 122 594 -35 446 q 386 712 260 712 m 170 346 q 414 463 333 363 q 432 537 444 513 q 394 574 420 562 l 370 579 q 259 519 316 576 q 170 346 167 433 z "},"f":{"ha":745,"x_min":-65,"x_max":883,"o":"m 634 945 q 762 812 724 923 q 767 655 786 741 q 681 507 748 570 q 494 408 597 429 q 323 397 409 388 q 296 311 302 332 q 472 258 367 263 q 700 311 585 249 q 747 349 720 324 q 818 379 783 389 q 881 329 852 368 q 855 228 883 272 q 738 126 827 184 q 446 69 606 62 q 240 124 329 77 l 237 124 q 192 -43 204 33 q 231 -111 189 -89 q 288 -96 260 -118 q 343 -112 328 -95 q 366 -159 359 -129 q 295 -290 362 -244 q 127 -338 221 -347 q -22 -164 2 -310 q -26 -60 -31 -117 q 36 188 -22 44 q -35 252 -4 208 q -28 345 -65 295 q 7 404 -10 386 q 53 426 24 421 q 126 396 82 431 q 340 779 260 653 q 634 945 464 968 m 383 548 l 398 548 q 627 662 576 557 q 638 719 638 696 l 638 722 q 597 796 645 783 l 561 796 q 451 677 514 806 q 383 548 411 612 z "},"g":{"ha":663,"x_min":-106,"x_max":786,"o":"m 576 655 l 610 655 q 659 603 644 648 q 550 251 566 314 q 677 354 608 264 q 735 369 706 375 q 772 351 765 363 q 786 297 779 339 q 753 217 783 255 q 671 132 724 178 l 614 85 q 477 28 555 50 q 320 -312 409 -212 q 110 -382 227 -396 q -83 -268 -20 -382 q -102 -190 -106 -237 q -1 -90 -90 -96 q 143 -160 66 -174 l 153 -160 q 290 28 221 -153 q 140 3 222 -20 q 3 92 50 13 q -14 172 -14 137 l -14 193 q 168 525 -28 353 q 413 617 287 613 l 461 616 q 500 616 498 616 q 576 655 534 648 m 166 257 q 224 187 157 190 q 386 310 333 174 q 447 471 439 431 l 422 475 q 243 399 336 473 q 166 257 169 322 z "},"h":{"ha":809,"x_min":-49,"x_max":954,"o":"m 360 907 l 391 907 q 452 862 422 907 l 452 854 q 258 466 312 618 l 262 466 q 564 595 412 595 q 676 536 669 583 l 683 507 q 651 363 683 470 q 600 227 604 253 q 650 176 589 168 q 808 349 741 234 q 887 378 850 382 q 954 319 925 374 q 863 145 917 221 q 777 41 808 69 q 683 -18 746 14 q 538 -41 600 -41 l 524 -41 q 385 77 406 -41 l 385 123 q 452 324 385 176 q 481 393 489 391 l 450 393 q 243 253 353 372 q 183 96 202 186 q 144 -18 169 -1 q 93 -42 133 -39 q -41 73 -8 -37 q -49 138 -49 117 q 11 341 -24 250 q 87 548 45 433 l 142 650 l 205 759 q 360 907 323 907 z "},"i":{"ha":535,"x_min":-20,"x_max":649,"o":"m 399 862 l 401 862 q 500 797 481 855 q 510 737 510 772 q 437 644 503 669 q 384 631 408 631 q 378 615 382 621 q 307 496 334 537 q 256 395 281 454 q 227 272 208 308 q 275 231 245 236 q 348 240 305 227 q 435 296 390 254 l 498 357 q 568 394 524 380 q 641 336 629 389 q 627 256 649 295 q 556 172 605 217 q 395 47 481 96 q 277 4 317 12 q 162 2 237 -4 q 51 44 87 12 q -3 110 15 76 q -20 214 -20 144 q 45 403 -20 302 q 128 526 86 469 l 180 593 q 266 660 237 660 q 225 737 225 693 q 326 856 232 824 q 399 862 355 862 z "},"j":{"ha":421,"x_min":-207,"x_max":515,"o":"m 348 875 q 424 812 390 863 q 428 717 444 774 q 330 634 404 642 q 320 601 313 639 q 182 213 304 549 l 184 213 q 355 311 285 239 q 394 349 395 347 q 460 358 430 365 q 500 334 490 351 q 515 277 511 317 q 433 170 498 225 q 277 63 353 94 q 148 26 219 41 q 66 -220 96 -166 q -66 -331 24 -324 q -207 -252 -163 -331 l -132 -60 l -50 133 q 56 397 0 261 l 104 532 q 157 635 143 620 q 199 651 170 651 q 140 739 144 677 q 233 871 144 825 q 348 875 302 890 z "},"k":{"ha":740,"x_min":-16,"x_max":864,"o":"m 336 958 l 345 958 q 437 926 411 949 q 423 880 452 908 l 358 768 q 310 682 344 744 l 310 680 q 472 732 404 741 q 549 720 519 734 q 655 593 642 698 q 568 364 669 465 q 469 267 526 308 l 469 265 q 592 217 506 193 q 725 345 673 251 q 802 379 755 385 q 864 313 848 373 q 795 159 857 253 q 683 40 743 83 q 530 -3 622 -2 q 378 68 458 -5 q 271 167 337 107 l 220 203 l 218 203 q 235 41 211 123 q 131 -2 213 -4 q 31 62 87 4 q -3 163 9 100 q -2 333 -16 226 q 123 701 20 496 q 252 899 197 824 q 336 958 301 948 m 205 349 q 437 432 341 345 q 510 560 524 518 q 473 591 510 585 q 329 545 393 591 q 246 466 264 498 q 216 391 228 433 q 205 349 203 350 z "},"l":{"ha":548,"x_min":-21,"x_max":700,"o":"m 427 944 q 467 949 444 949 q 509 857 541 931 q 408 735 445 791 q 240 358 240 512 l 240 351 q 295 243 240 270 q 357 228 323 228 q 479 283 417 226 q 557 376 520 317 q 604 412 579 399 q 688 372 670 422 q 674 271 700 335 q 578 130 648 206 q 434 25 512 57 q 289 0 381 0 l 255 0 q 7 144 84 0 q -21 277 -21 203 q 220 774 -21 488 q 427 944 376 939 z "},"m":{"ha":1059,"x_min":-23,"x_max":1161,"o":"m 372 634 q 392 640 372 634 q 452 644 412 646 q 531 604 511 635 q 559 514 565 560 l 562 514 q 802 633 693 640 q 897 603 865 640 q 919 574 919 577 q 912 425 946 530 q 880 283 884 318 q 929 233 887 224 q 1000 294 967 258 q 1081 360 1039 355 q 1157 315 1138 362 q 1102 167 1161 258 q 938 17 1041 63 q 823 -1 903 -1 q 716 67 745 12 q 696 134 696 104 l 696 151 q 751 421 682 237 l 759 441 q 728 455 759 454 q 588 333 670 448 q 546 256 559 288 q 534 85 515 167 l 529 26 q 445 -5 514 -9 q 349 75 393 -5 q 337 140 337 109 q 397 429 323 244 q 367 458 396 455 q 232 361 301 444 q 172 252 187 293 q 170 56 147 139 q 102 1 162 -2 l 100 1 q -5 87 15 1 q -23 233 -21 136 q 33 500 -22 366 q 131 633 75 633 q 205 614 178 648 q 212 536 226 578 l 214 536 q 261 580 241 561 q 372 634 331 623 z "},"n":{"ha":701,"x_min":-36,"x_max":846,"o":"m 178 644 q 237 625 229 637 q 214 525 214 536 l 216 525 q 382 623 294 602 q 551 635 469 655 q 608 588 596 628 q 576 331 631 527 q 562 244 568 296 q 606 204 564 197 q 713 313 659 227 q 803 342 766 355 q 846 285 840 329 q 774 130 846 240 q 562 0 685 7 l 496 0 q 358 79 393 0 q 345 153 345 119 q 414 438 345 267 q 420 458 420 450 l 416 463 q 235 344 339 463 q 184 242 195 289 q 159 62 160 135 q 110 10 155 11 q -31 120 12 10 q -36 161 -36 144 l -36 178 q 87 585 -36 357 q 178 644 121 637 z "},"o":{"ha":730,"x_min":-33,"x_max":842,"o":"m 416 671 q 572 564 526 633 q 612 412 617 494 q 541 218 610 317 l 543 218 q 649 252 620 233 q 712 309 684 275 q 786 341 745 349 q 842 283 828 333 q 804 185 842 236 q 460 60 659 27 q 231 -7 385 -4 q 57 54 121 -2 q -13 201 -7 111 q 159 578 -33 404 q 273 635 208 615 l 275 635 l 275 640 q 326 675 275 669 q 416 671 366 680 m 181 302 l 181 291 q 204 234 182 254 q 250 212 225 214 q 386 280 328 210 q 431 426 438 355 q 353 499 426 497 q 206 402 255 487 q 181 302 181 359 z "},"p":{"ha":768,"x_min":-81,"x_max":907,"o":"m 218 682 q 284 686 245 695 q 328 661 323 677 q 305 590 320 627 l 307 590 q 423 651 367 644 q 530 653 479 659 q 620 618 581 648 q 685 494 676 574 q 628 259 698 370 q 543 184 602 203 l 543 182 q 616 201 585 182 q 747 288 703 220 q 804 355 773 335 q 873 330 847 356 q 901 281 899 304 q 819 134 907 218 q 618 16 712 46 q 378 -12 523 -12 q 152 51 218 -12 q 167 -184 133 -66 l 174 -268 q 154 -318 174 -296 q 74 -338 135 -340 q -46 -231 -14 -338 q -54 -181 -52 -212 q -59 79 -81 -76 l -31 220 q 44 420 9 345 l 79 496 l 129 578 q 218 682 165 661 m 219 245 q 281 236 231 240 q 517 378 452 236 q 519 450 532 416 q 471 499 516 491 q 291 393 366 499 q 218 245 229 292 l 219 245 z "},"q":{"ha":692,"x_min":-22,"x_max":860,"o":"m 642 670 q 716 633 699 665 q 586 286 619 374 l 574 256 l 576 256 q 663 288 623 265 q 734 355 705 317 q 815 381 781 394 q 860 323 850 369 q 797 193 850 258 q 606 62 709 104 q 486 36 557 39 q 392 -313 400 -217 q 342 -340 387 -338 q 221 -287 251 -333 q 199 -180 192 -240 q 254 -1 206 -93 q 123 -14 193 -26 q 21 50 60 1 q -20 180 -19 99 q 50 393 -22 288 q 198 554 102 488 q 428 646 294 621 q 550 643 509 663 q 642 670 581 681 m 164 273 q 227 175 132 176 q 478 498 342 168 q 300 451 393 501 q 164 273 197 382 z "},"r":{"ha":509,"x_min":-43,"x_max":640,"o":"m 469 646 q 505 602 500 626 q 494 541 509 578 q 412 491 479 505 q 311 517 366 530 q 223 474 251 509 q 176 378 196 439 q 174 284 163 323 q 223 223 185 245 q 331 212 261 201 q 497 332 435 247 q 587 373 536 382 q 637 315 638 365 q 490 90 640 229 q 244 -7 363 -7 l 168 -7 q 41 53 88 5 q -28 178 -7 100 q -23 324 -43 259 q 65 505 -3 389 q 97 597 92 532 q 7 698 86 658 q 101 795 22 776 q 197 738 156 786 q 234 634 239 689 q 355 682 306 668 q 469 646 426 682 z "},"s":{"ha":650,"x_min":-66,"x_max":790,"o":"m 410 725 q 501 701 476 724 q 523 639 526 677 q 465 586 502 588 q 407 588 426 586 q 338 578 389 591 q 322 520 309 545 q 393 463 336 496 q 504 394 467 435 q 538 289 541 353 q 526 217 537 247 l 527 217 q 594 243 573 221 q 631 284 616 265 q 692 349 673 342 q 740 343 704 350 q 785 258 790 323 q 703 121 766 182 q 533 17 634 45 q 295 0 418 -12 q 119 53 203 6 q -24 186 35 99 q -13 332 -66 271 q 72 357 35 367 q 146 308 110 348 q 199 257 173 281 q 290 216 245 222 q 352 232 332 218 q 368 294 372 246 q 306 359 359 338 q 225 418 260 380 q 174 488 189 453 q 177 591 159 522 q 277 693 212 668 q 410 725 338 730 z "},"t":{"ha":506,"x_min":-34,"x_max":648,"o":"m 337 828 q 440 777 422 821 q 336 623 348 649 q 509 602 453 610 q 450 463 493 520 q 264 487 400 469 l 264 485 q 223 311 223 385 q 345 216 223 216 q 469 296 429 237 q 530 361 492 321 q 596 367 566 372 q 636 350 626 361 q 648 296 646 338 q 568 133 634 212 q 418 19 508 56 q 196 -7 329 -18 q -25 183 -1 21 q 5 361 -34 266 q 88 513 45 456 q 25 522 34 517 q 12 536 16 527 q 53 659 24 604 l 57 664 q 171 653 123 664 q 256 768 206 706 q 337 828 295 807 z "},"u":{"ha":809,"x_min":-29,"x_max":950,"o":"m 262 653 q 346 603 317 653 q 218 311 218 451 l 218 296 q 256 237 218 250 q 281 229 271 229 q 327 236 292 229 q 412 280 361 243 q 504 511 415 378 q 625 637 588 622 q 675 651 648 651 q 753 609 724 658 q 677 475 696 538 q 660 321 653 388 l 660 317 q 711 248 667 236 q 812 338 777 264 l 814 338 q 899 363 852 380 q 947 302 945 346 q 865 140 950 257 q 593 0 726 -7 l 567 0 q 413 77 462 0 q 189 0 302 -7 l 161 0 q 14 104 56 20 q -16 266 -29 178 q 118 564 -2 427 q 262 653 199 653 z "},"v":{"ha":752,"x_min":-47,"x_max":890,"o":"m 581 637 q 671 583 653 637 q 678 532 678 557 l 678 475 q 611 336 678 406 q 660 271 618 273 l 663 271 q 766 332 713 264 q 844 360 801 372 q 890 304 890 351 q 819 170 884 249 q 631 79 741 79 q 469 144 519 81 q 293 18 364 44 q 199 0 222 -7 q 86 39 122 -14 q 75 88 75 56 q 87 257 68 129 l 85 257 q 5 193 57 237 q -24 185 -16 185 q -47 288 -35 185 q 95 505 -47 330 q 249 606 182 606 q 300 527 293 606 l 300 496 q 264 272 300 484 l 264 241 q 271 230 264 230 q 425 312 317 230 q 481 484 452 395 q 526 599 495 547 q 581 637 550 637 z "},"w":{"ha":1016,"x_min":-14,"x_max":1140,"o":"m 896 659 q 945 629 931 659 q 961 525 961 595 l 961 506 q 923 349 941 431 q 959 289 913 289 q 1023 344 995 282 q 1093 360 1052 367 q 1140 294 1133 353 l 1140 259 q 1080 136 1133 200 q 954 50 1008 54 q 803 134 857 45 q 701 41 778 88 q 549 -1 631 -14 q 463 47 494 5 q 418 175 431 88 l 366 104 q 256 17 320 41 q 136 -1 192 -7 q 23 81 75 -1 q -3 267 -14 153 q 34 413 6 336 q 106 566 62 490 q 188 637 140 630 q 256 621 224 644 q 186 361 209 509 q 184 315 183 341 q 233 242 182 252 l 256 239 q 333 312 311 241 q 389 435 357 347 q 444 589 418 538 q 561 640 500 647 q 601 610 585 640 q 605 589 605 602 q 576 399 578 491 q 640 242 559 242 l 649 242 q 740 307 682 242 l 740 320 q 779 559 747 435 q 896 659 845 659 z "},"x":{"ha":789,"x_min":-39,"x_max":930,"o":"m 675 653 q 762 624 742 662 q 774 600 773 609 q 776 579 775 591 q 773 550 777 566 q 715 510 769 534 q 599 426 649 486 q 526 333 548 366 q 644 225 575 225 l 647 225 q 738 285 698 239 q 827 371 775 319 q 930 295 923 384 q 847 157 930 247 q 557 0 707 0 l 504 0 q 368 161 408 0 l 363 176 q 248 50 336 131 q 124 0 174 0 l 113 0 q -27 107 17 0 q -33 181 -33 131 q 0 325 -39 264 q 62 371 34 373 q 119 338 90 368 l 119 317 q 147 250 113 284 l 181 248 q 311 361 233 261 q 315 371 311 365 q 231 602 267 528 q 227 611 227 602 q 360 655 292 669 q 433 521 391 642 l 443 488 q 591 632 524 585 q 675 653 630 653 z "},"y":{"ha":721,"x_min":-142,"x_max":866,"o":"m 208 644 l 214 644 q 302 610 286 644 l 302 608 q 193 329 193 394 l 193 312 q 254 246 214 246 q 262 244 262 246 q 394 351 326 244 q 466 553 438 419 q 484 630 479 630 q 551 648 519 642 l 555 648 q 629 615 629 638 q 633 590 633 606 q 577 275 646 450 q 570 262 575 275 l 572 262 q 690 308 633 257 q 732 357 718 331 q 818 379 769 394 q 861 334 866 364 q 817 208 865 279 q 646 92 749 123 q 507 62 578 70 q 358 -217 439 -104 q 119 -342 248 -334 l 120 -342 q -75 -269 8 -342 q -129 -134 -142 -201 q -77 -46 -136 -85 q -15 -39 -43 -33 q 136 -119 55 -133 l 151 -119 q 253 -43 195 -109 q 313 60 277 -15 l 313 62 q 223 46 250 39 q 71 85 110 46 q -17 229 -10 146 l -17 252 q 71 524 -37 363 q 208 644 146 630 z "},"z":{"ha":721,"x_min":-58,"x_max":869,"o":"m 376 678 q 534 674 456 677 q 634 629 611 671 q 637 550 645 590 q 498 350 610 483 q 359 205 425 264 l 359 203 q 520 182 432 168 q 644 248 596 203 q 736 353 702 298 q 790 374 750 367 q 844 366 825 378 q 866 321 863 353 q 847 237 869 288 q 644 43 788 109 q 452 -3 536 -3 l 383 -3 q 270 26 330 2 q 164 73 210 50 q 46 121 109 100 q -37 153 -16 140 q -52 216 -58 167 q -18 330 -49 274 q 53 382 -5 381 q 133 325 106 384 q 185 271 168 285 q 313 377 277 340 q 378 443 350 414 q 438 513 406 472 q 401 517 422 517 l 397 517 q 307 510 349 517 q 188 495 265 503 q 166 508 174 496 q 152 555 159 520 l 152 574 q 203 650 170 629 q 376 678 294 673 z "},"{":{"ha":219,"x_min":-90,"x_max":677,"o":"m 174 218 q 165 194 174 218 q 140 120 156 170 q 116 25 124 71 q 109 -72 109 -20 q 129 -178 109 -123 q 30 -229 88 -212 q -5 -235 10 -235 q -35 -226 -20 -235 q -62 -198 -50 -216 q -90 -94 -90 -156 q -70 27 -90 -33 q -20 144 -49 86 q 40 259 9 203 q 118 473 118 399 q 97 539 118 509 q 110 560 104 549 q 123 578 116 570 q 169 599 139 596 q 228 625 199 602 q 282 681 258 647 q 329 759 307 715 q 373 846 351 802 q 419 932 395 890 q 473 1006 443 974 q 623 1080 538 1080 q 665 1066 654 1080 q 677 1042 677 1053 q 669 1017 677 1030 q 641 1020 650 1020 q 466 874 532 1020 q 429 788 447 832 q 393 699 412 743 q 351 617 374 654 q 222 519 297 534 q 241 459 241 493 q 232 389 241 426 q 207 309 223 353 q 174 218 191 265 z "},"|":{"ha":689,"x_min":132,"x_max":751,"o":"m 696 1094 q 751 1063 751 1076 q 661 749 751 1010 q 400 96 534 385 q 253 -141 290 -141 q 201 -126 233 -141 q 132 -82 144 -100 q 445 491 210 -13 q 696 1094 666 964 z "},"}":{"ha":375,"x_min":-246,"x_max":460,"o":"m 348 841 q 358 862 348 841 q 382 923 368 882 q 396 997 396 964 q 374 1078 396 1031 q 398 1090 391 1090 q 415 1089 406 1090 q 435 1075 423 1088 q 460 974 460 1045 q 434 850 460 922 q 392 738 408 778 q 361 612 361 657 q 382 568 361 580 q 366 506 398 534 q 351 496 357 499 q 227 347 279 471 q 184 226 204 292 q 144 95 165 161 q 100 -33 124 29 q 43 -142 76 -94 q -138 -246 -29 -246 q -222 -193 -191 -246 q -246 -119 -244 -157 q -35 95 -123 -96 q 14 206 -10 149 q 63 319 37 263 q 119 423 88 375 q 279 560 189 530 q 259 613 259 583 q 273 682 259 644 q 307 760 286 720 q 348 841 328 800 z "},"~":{"ha":532,"x_min":-50,"x_max":574,"o":"m 187 547 q 342 482 256 547 q 432 450 389 450 q 522 503 467 450 q 574 421 574 460 q 485 286 574 366 q 374 241 425 241 q 222 331 288 241 q 157 368 184 368 q 1 284 90 368 q -50 372 -50 338 l -50 378 q 68 511 -18 454 q 187 547 125 547 z "}," ":{"ha":347,"x_min":0,"x_max":0,"o":""},"!":{"ha":688,"x_min":122,"x_max":824,"o":"m 226 277 q 359 689 262 509 q 426 790 393 751 q 492 864 459 830 q 562 925 524 897 q 720 990 649 990 q 788 951 756 990 q 824 852 824 907 q 755 762 824 807 q 684 720 724 742 q 599 671 643 699 q 511 609 555 644 q 430 528 467 574 q 321 279 345 422 q 299 276 315 279 q 267 273 283 274 q 226 277 226 268 m 162 -42 q 151 -34 162 -42 q 131 -10 140 -26 q 122 30 122 6 q 138 80 122 54 q 182 127 155 106 q 311 174 243 174 q 409 146 378 174 q 439 74 439 119 q 361 -20 439 23 q 228 -59 289 -59 q 162 -42 185 -59 z "},"":{"ha":867,"x_min":-64,"x_max":935,"o":"m 434 -182 q 100 74 238 -74 q -58 421 -64 253 q 12 606 -55 532 q 174 692 79 681 q 439 564 342 703 q 692 684 523 703 q 853 600 781 681 q 926 418 926 518 q 762 68 935 258 q 434 -182 625 -74 z "},"":{"ha":930,"x_min":-36,"x_max":964,"o":"m 463 -222 q 129 33 267 -114 q -29 380 -36 212 q 40 566 -26 492 q 203 652 107 640 q 468 524 371 663 q 721 643 551 663 q 882 559 810 640 q 954 378 954 478 q 790 28 964 218 q 463 -222 653 -114 m 468 318 q 317 472 380 435 q 189 475 254 509 q 126 386 138 440 q 133 282 115 332 q 234 139 150 233 q 463 -32 318 45 q 692 143 602 53 q 799 326 782 233 q 736 469 815 418 q 603 461 659 505 q 468 318 547 418 z "},"":{"ha":1270,"x_min":-32,"x_max":1300,"o":"m 1075 1042 q 1066 959 1058 974 q 1115 906 1075 945 q 1177 840 1156 868 q 1198 791 1198 811 q 1186 751 1198 777 q 1144 724 1161 724 q 1107 729 1132 724 q 1063 742 1082 734 q 1015 749 1044 749 q 1064 606 1047 677 q 1001 432 1076 498 q 1079 260 1053 301 q 1190 390 1144 322 l 1300 307 q 1133 114 1229 191 q 928 5 1047 37 q 680 -28 806 -28 q 456 -14 572 -28 q 247 54 353 5 q 79 163 165 86 q -32 313 -5 244 l 65 382 q 187 268 117 318 q 228 347 207 290 q 225 453 250 404 q 219 640 179 550 q 193 689 228 684 q 111 651 159 669 q 31 655 62 632 q 17 723 0 677 q 52 795 33 768 q 98 849 71 822 q 163 889 125 876 q 244 890 201 903 q 305 848 285 873 q 333 797 325 822 q 363 741 342 771 q 446 689 387 711 q 589 667 504 667 q 730 678 672 667 q 800 726 789 689 q 848 897 831 808 q 903 1013 876 990 q 963 1059 930 1036 q 1035 1093 996 1082 q 1075 1042 1075 1104 m 839 355 q 700 328 789 322 q 539 335 615 328 q 412 375 464 342 l 315 199 q 390 156 333 182 q 519 121 447 131 q 675 111 591 111 q 939 187 833 114 q 905 242 920 222 q 839 355 890 262 z "},"":{"ha":685,"x_min":-39,"x_max":747,"o":"m 696 1059 q 700 882 747 985 q 574 627 653 779 l 604 600 q 715 339 715 498 l 715 304 q 646 105 710 187 q 511 -2 582 22 q 376 -26 440 -26 l 329 -26 q 101 49 172 -21 q 4 191 29 119 q -21 330 -21 262 q 104 615 -21 504 l 132 632 q 7 852 53 771 q -24 1002 -39 933 q 126 1096 1 1112 q 235 976 218 1061 q 256 837 252 890 q 272 684 261 783 l 357 689 q 411 681 386 686 q 433 798 425 765 q 457 950 440 831 q 568 1096 473 1069 q 696 1059 659 1118 z "},"":{"ha":722,"x_min":-33,"x_max":757,"o":"m 339 1118 q 373 1123 361 1128 q 409 1080 385 1118 q 445 1044 433 1042 q 535 1028 493 1036 l 538 1028 q 599 1067 583 1061 q 643 1071 615 1074 q 661 1017 667 1064 q 623 895 649 939 q 583 825 597 851 q 619 711 583 765 q 663 629 654 657 q 672 549 672 600 l 667 510 q 694 456 667 486 q 739 381 721 427 q 746 293 757 336 q 618 114 746 208 q 530 -8 618 54 q 410 -57 467 -43 q 231 -51 328 -71 q 49 65 134 -32 q -8 325 -33 182 l 5 393 q 73 463 26 464 q 126 424 119 461 q 117 319 134 387 q 182 127 109 199 q 307 71 225 82 q 436 94 382 57 l 404 97 q 233 193 310 85 q 197 315 197 248 l 197 325 q 260 478 197 399 q 275 537 279 518 q 275 591 271 555 q 334 708 279 627 q 359 771 359 751 q 315 804 325 786 q 291 850 304 822 q 288 954 277 879 q 339 1118 288 1074 z "},"":{"ha":1301,"x_min":-34,"x_max":1352,"o":"m 601 1013 q 766 936 694 1013 q 751 768 831 825 l 699 882 l 810 893 l 916 893 q 1323 663 1266 893 q 1312 372 1352 534 q 1266 111 1269 220 q 1257 22 1257 46 l 1232 11 l 1070 11 q 1046 32 1046 11 l 1046 111 q 897 298 1027 298 l 853 298 q 677 54 677 298 l 677 0 l 490 0 q 446 310 460 0 l 430 301 q 185 196 344 199 q -23 450 -23 216 l -23 518 q 59 689 -34 692 q 115 655 102 686 q 134 507 128 624 q 197 429 156 401 q 270 518 245 464 q 248 652 250 572 q 293 845 242 779 q 424 914 344 911 q 601 1013 560 1013 z "},"":{"ha":924,"x_min":-79,"x_max":947,"o":"m 193 893 l 203 893 q 224 890 210 893 q 231 893 228 893 q 329 852 294 876 q 406 790 366 836 l 493 800 q 599 786 545 807 q 696 749 657 765 q 893 551 818 685 q 924 450 911 507 q 921 447 924 447 q 926 416 924 422 q 914 359 924 389 q 945 292 940 321 l 942 292 q 947 275 947 279 q 901 221 940 221 q 840 254 871 221 l 770 309 q 720 335 753 322 q 639 359 720 343 q 591 301 623 325 q 500 258 546 258 q 497 257 500 257 q 479 261 493 257 l 473 258 q 422 282 422 261 q 461 374 456 315 q 380 342 411 347 q 344 336 349 338 q 332 334 339 334 l 332 335 q 218 304 268 332 q 161 208 171 261 l 174 171 q 215 123 195 147 q 288 5 260 83 q 294 -18 288 1 q 292 -21 294 -21 l 294 -32 q 252 -61 294 -56 l 248 -61 q 175 -41 199 -47 q 86 21 139 -25 q 32 -32 60 -4 l 16 -49 q -35 -78 0 -78 q -69 -52 -61 -78 q -79 -16 -79 -37 l -79 -8 q -78 -5 -79 -5 l -79 -1 l -79 22 q -43 136 -74 87 q -12 191 -20 179 q -21 302 -24 256 q -18 334 -18 307 q 39 521 -8 433 q 115 631 58 567 q 196 710 143 656 l 196 715 q 134 843 196 751 q 126 864 126 851 q 193 893 136 893 z "},"":{"ha":947,"x_min":-33,"x_max":971,"o":"m 257 960 l 281 960 q 419 831 368 960 q 468 734 460 750 q 522 815 494 770 q 726 954 607 954 q 824 896 791 960 q 821 770 856 832 q 911 753 856 778 q 956 665 966 728 q 749 492 956 532 l 717 492 l 693 484 q 778 441 733 456 q 943 315 914 370 q 940 193 971 261 q 777 140 908 125 q 779 54 786 97 q 733 -2 772 11 q 650 -8 693 -16 q 558 40 607 -1 q 454 207 509 81 l 443 207 q 353 62 416 127 q 216 -12 293 -4 q 95 36 135 -12 q 100 161 54 83 q 31 171 60 158 q -13 207 3 184 q -28 267 -28 229 l -28 286 q 74 412 -28 371 q 179 463 150 443 l 201 467 q 31 551 102 497 q -33 679 -33 619 q 158 802 -12 828 q 227 954 153 922 l 257 960 z "},"\"":{"ha":721,"x_min":271,"x_max":770,"o":"m 543 688 q 565 777 552 712 q 586 876 577 842 q 610 937 595 910 q 696 998 643 998 q 750 976 730 998 q 770 924 770 954 q 759 867 770 895 q 730 811 748 839 q 691 756 713 783 q 650 711 670 730 q 585 666 604 666 q 560 675 574 666 q 543 688 546 684 m 378 710 q 368 700 378 710 q 340 678 357 690 q 317 666 323 666 q 305 668 311 666 q 293 673 299 670 q 271 688 277 682 q 293 777 281 712 q 315 876 306 842 q 339 937 324 910 q 425 998 372 998 q 479 976 459 998 q 499 924 499 954 q 488 867 499 895 q 459 811 477 839 q 420 756 441 783 q 378 710 399 730 z "},"":{"ha":836,"x_min":-53,"x_max":920,"o":"m 465 990 q 501 920 484 960 q 530 857 519 879 q 573 803 541 836 q 599 789 578 798 q 630 773 619 781 q 646 751 641 765 q 646 749 646 751 q 646 743 646 746 q 634 718 646 727 q 603 704 622 708 q 562 694 584 700 q 589 642 568 665 q 656 583 611 618 q 720 532 701 548 q 749 494 739 515 q 717 464 749 464 q 694 465 709 464 q 673 467 679 467 q 660 464 663 467 q 717 399 671 431 q 806 335 763 366 q 858 274 850 304 q 858 263 858 269 q 831 239 858 239 q 812 240 825 239 q 790 241 798 241 q 774 239 782 241 q 813 178 779 206 q 882 138 847 149 q 920 96 917 126 q 879 68 917 75 q 773 61 841 61 q 724 62 757 61 q 681 64 692 64 q 613 56 621 64 l 614 -68 q 603 -73 608 -73 q 585 -65 597 -73 q 562 -57 573 -57 q 494 -46 524 -57 q 465 -30 486 -30 q 439 -35 454 -30 q 404 -47 424 -41 q 378 -57 383 -54 q 329 -68 345 -68 q 318 -65 323 -68 l 317 66 q 207 69 288 61 q 77 68 125 77 q 12 60 28 60 q -35 85 -18 60 q -53 129 -53 110 q -1 191 -53 159 q 92 246 69 240 q 121 258 115 252 q 134 273 128 265 q 150 298 139 281 q 100 309 117 298 q 58 345 82 320 q 71 377 58 350 q 146 441 106 410 q 197 484 185 472 q 250 548 210 496 q 182 548 237 551 q 166 581 166 567 q 174 608 166 589 q 222 655 182 624 q 280 705 261 686 q 299 749 299 724 q 296 762 299 751 q 237 789 237 765 q 245 814 237 800 q 295 878 267 852 q 345 924 323 903 q 389 990 367 944 q 421 1015 402 1015 q 465 990 443 1015 z "},"":{"ha":907,"x_min":-71,"x_max":971,"o":"m 426 1069 l 480 1069 l 605 1053 q 796 956 719 1020 q 922 770 873 892 q 963 564 963 656 l 963 559 q 941 349 971 420 q 852 222 911 277 l 741 130 q 700 0 741 0 q 629 41 629 0 q 610 81 629 76 l 597 81 q 570 8 589 81 q 502 0 562 8 q 461 68 472 0 l 448 76 l 434 76 q 412 0 420 76 l 407 0 q 331 68 331 0 q 312 76 323 68 q 277 14 288 76 q 209 0 266 5 l 195 22 l 195 62 q 141 157 195 138 q -43 431 -14 269 l -57 564 q 60 909 -71 779 q 296 1047 136 982 q 426 1069 382 1069 m 488 632 l 488 600 q 665 442 488 467 q 827 600 827 477 l 827 613 q 700 784 827 735 l 637 784 q 488 632 488 746 m 146 613 l 146 605 q 241 505 174 505 l 282 505 q 380 627 363 505 q 263 730 380 705 q 146 613 146 713 z "},"":{"ha":907,"x_min":-52,"x_max":968,"o":"m 353 833 q 366 781 353 806 q 403 743 380 757 q 456 730 426 730 q 502 743 477 730 q 540 781 526 757 q 553 833 553 806 q 540 883 553 857 q 502 920 526 909 q 456 930 477 930 q 403 920 426 930 q 366 883 380 909 q 353 833 353 857 m 382 624 q 342 646 374 627 q 262 726 290 673 q 233 836 233 779 q 262 944 233 892 q 343 1025 290 996 q 453 1055 396 1055 q 562 1025 510 1055 q 643 944 613 996 q 673 836 673 892 q 643 726 673 779 q 562 646 613 673 q 529 624 529 627 l 529 575 l 643 575 l 760 575 l 760 445 l 643 445 l 529 445 l 529 307 l 529 144 q 651 193 591 146 q 738 277 700 222 l 686 334 l 968 388 l 890 125 l 833 174 q 700 68 798 130 q 453 0 594 0 q 212 73 301 8 q 81 176 133 122 l 27 130 l -52 380 l 231 317 l 187 269 q 293 182 233 220 q 382 146 336 157 l 382 307 l 382 445 l 269 445 l 146 445 l 146 575 l 266 575 l 382 575 l 382 624 z "},"":{"ha":956,"x_min":-68,"x_max":998,"o":"m 436 1074 l 574 1061 q 922 849 813 1015 q 859 770 941 768 q 637 822 775 836 l 615 822 q 425 711 496 814 l 387 648 q 371 570 371 597 l 371 564 q 439 335 360 410 q 604 260 517 260 q 677 252 642 252 l 705 252 q 903 326 794 252 q 989 288 998 393 q 726 52 908 157 q 531 0 593 0 l 436 0 q 134 109 238 24 q -25 326 29 193 q -68 548 -68 426 q 28 873 -63 754 q 254 1042 119 993 q 436 1074 344 1069 z "},"":{"ha":930,"x_min":-57,"x_max":982,"o":"m 461 1050 q 722 983 597 1050 q 914 791 846 917 q 982 524 982 665 q 914 258 982 382 q 722 65 846 133 q 461 -3 597 -3 q 202 65 328 -3 q 9 258 76 133 q -57 524 -57 382 q 9 791 -57 665 q 202 983 76 917 q 461 1050 328 1050 m 382 906 q 241 860 315 901 q 107 727 155 814 q 60 540 60 640 q 109 353 60 439 l 125 317 l 382 578 l 382 906 m 195 214 q 255 174 222 190 q 393 125 328 133 l 393 407 l 195 214 m 521 130 q 665 174 589 133 q 722 214 694 190 l 521 410 l 521 130 m 789 331 l 806 353 q 852 540 852 439 q 804 727 852 640 q 670 863 757 814 q 515 911 597 901 l 521 583 l 789 331 z "},"":{"ha":839,"x_min":-94,"x_max":937,"o":"m 856 760 q 926 662 905 722 q 937 602 937 624 q 899 494 937 537 q 802 423 861 445 q 742 412 774 412 q 704 415 688 412 q 774 336 720 418 q 812 228 812 288 q 726 65 812 136 q 623 33 682 33 q 460 119 536 33 q 425 157 427 157 q 378 114 422 157 q 221 33 319 33 q 107 71 156 33 q 31 206 37 119 q 69 336 26 277 q 96 412 129 418 q 42 423 69 412 q -56 494 -12 445 q -94 602 -94 543 q -83 662 -94 624 q -12 760 -61 716 q 96 798 37 798 q 156 787 129 798 q 235 751 248 754 q 232 857 221 749 q 297 982 237 928 q 422 1031 351 1031 q 568 960 509 1031 q 612 857 606 917 q 609 743 623 738 q 688 787 595 749 q 742 798 720 798 q 856 760 802 798 m 498 410 q 544 502 544 453 q 514 581 544 545 q 425 621 471 621 q 338 586 370 621 q 302 502 302 553 q 332 426 302 458 q 425 380 370 380 q 498 410 465 380 z "},"":{"ha":1006,"x_min":0,"x_max":1017,"o":"m 304 949 l 393 949 l 483 949 l 572 949 l 662 949 l 749 949 l 838 949 l 928 949 l 1017 949 l 1017 749 l 1017 548 l 1017 347 l 1017 146 q 993 69 1017 106 q 924 12 968 33 q 830 -8 879 -8 q 736 12 781 -8 q 667 69 692 33 q 643 146 643 106 q 667 224 643 187 q 731 278 692 260 q 822 296 770 296 q 887 279 854 293 q 911 266 898 274 l 911 358 l 911 448 l 911 540 l 911 629 l 789 629 l 665 629 l 543 629 l 418 629 l 418 510 l 418 388 l 418 269 l 418 146 q 372 69 418 106 q 281 12 326 33 q 187 -8 236 -8 q 91 12 136 -8 q 23 69 46 33 q 0 146 0 106 q 23 224 0 187 q 91 279 46 260 q 187 298 136 298 q 279 279 236 298 q 304 266 293 274 l 304 437 l 304 608 l 304 779 l 304 949 m 418 836 l 418 732 l 543 732 l 665 732 l 789 732 l 849 732 l 911 732 l 911 836 l 789 836 l 665 836 l 543 836 l 418 836 z "}}}
